<svg xmlns="http://www.w3.org/2000/svg" width="262" height="27" viewBox="0 0 262 27">
  <g id="Group_62" data-name="Group 62" transform="translate(-1445 -4707)">
    <text id="Created_with_by_AD_Awards" data-name="Created with       by AD Awards" transform="translate(1445 4729)" fill="#fff" font-size="20" font-family="SegoeUI-Light, Segoe UI" font-weight="300"><tspan x="0" y="0" xml:space="preserve">Created with       by AD Awards</tspan></text>
    <path id="Icon_ionic-ios-heart-empty" data-name="Icon ionic-ios-heart-empty" d="M20,3.938h-.055a6.223,6.223,0,0,0-5.2,2.844,6.223,6.223,0,0,0-5.2-2.844H9.5a6.183,6.183,0,0,0-6.125,6.18,13.312,13.312,0,0,0,2.614,7.257,45.81,45.81,0,0,0,8.761,8.438,45.81,45.81,0,0,0,8.761-8.438,13.312,13.312,0,0,0,2.614-7.257A6.183,6.183,0,0,0,20,3.938Zm2.275,12.534a41.945,41.945,0,0,1-7.525,7.416,42.008,42.008,0,0,1-7.525-7.421,11.8,11.8,0,0,1-2.319-6.349,4.64,4.64,0,0,1,4.6-4.643H9.56a4.585,4.585,0,0,1,2.248.591A4.779,4.779,0,0,1,13.47,7.623a1.536,1.536,0,0,0,2.57,0A4.826,4.826,0,0,1,17.7,6.065a4.585,4.585,0,0,1,2.248-.591H20a4.64,4.64,0,0,1,4.6,4.643A11.947,11.947,0,0,1,22.275,16.472Z" transform="translate(1554.875 4708.188)" fill="red"/>
  </g>
</svg>
