<?xml version="1.0"?>
<svg xmlns="http://www.w3.org/2000/svg" xmlns:xlink="http://www.w3.org/1999/xlink" xmlns:svgjs="http://svgjs.com/svgjs" version="1.1" width="512" height="512" x="0" y="0" viewBox="0 0 511.999 511.999" style="enable-background:new 0 0 512 512" xml:space="preserve" class=""><g>
<g xmlns="http://www.w3.org/2000/svg">
	<g>
		<path d="M256.012,448.037c-11.02,0-19.985,8.966-19.985,19.985c0,11.019,8.966,19.985,19.985,19.985    c11.019,0,19.985-8.966,19.985-19.985C275.997,457.003,267.032,448.037,256.012,448.037z M256.012,473.004    c-2.747,0-4.981-2.234-4.981-4.981c0-2.747,2.235-4.981,4.981-4.981c2.747,0,4.981,2.234,4.981,4.981    C260.992,470.77,258.759,473.004,256.012,473.004z" fill="#1c1714" data-original="#000000" style=""/>
	</g>
</g>
<g xmlns="http://www.w3.org/2000/svg">
	<g>
		<path d="M440.571,482.07c-0.022-0.901-0.074-1.817-0.152-2.718c-0.36-4.127-4.006-7.173-8.127-6.821    c-4.127,0.36-7.182,3.998-6.821,8.127c1.003,11.467-4.08,16.336-15.737,16.336c-14.143,0-23.911,0-37.757,0v-58.863l43.998-5.783    l2.933,14.732c0.807,4.063,4.748,6.701,8.821,5.896c4.064-0.809,6.703-4.758,5.896-8.822    c-1.488-7.478-15.449-77.587-15.491-77.756c-3.455-16.746-14.108-29.395-29.148-36.079h-0.001    c-4.516-2.019-5.029-1.743-9.149-3.09c-78.904-27.873-74.792-25.143-74.792-28.362V280.48c0.147-0.095,3.784-2.15,8.473-5.634    c8.501-6.306,14.029-12.632,13.318-11.871c15.635-17.056,24.009-36.709,26.132-56.945c22.91,1.062,38.715-20.82,29.171-39.868    v-61.161c0-44.23-24.055-59.617-31.404-63.285C310.703-6.068,235.3-11.99,186.4,19.79l-0.102,0.066    c-6.253,4.067-3.334,13.792,4.098,13.792c4.994,0,22.295-17.269,63.579-18.615c30.601-0.756,65.066,11.405,86.237,37.51    c0.842,1.037,1.868,1.803,3.119,2.271c0.972,0.39,23.8,9.997,23.8,50.188v47.351c-4.181-1.771-8.763-2.668-13.59-2.53v-24.54    c0-6.225-4.689-11.371-10.907-11.97c-12.608-1.217-19.673-9.432-23.38-16.108c-4.63-8.339-15.701-10.371-22.977-4.151    c-33.452,28.596-71.971,30.05-98.393,26.237c-19.956-2.883-38.521,10.711-41.751,30.542c-4.857-0.21-9.657,0.649-14.069,2.519    c0.258-29.694-3.69-61.732,27.355-98.318c2.747-3.103,2.459-7.843-0.643-10.591c-3.102-2.747-7.844-2.458-10.59,0.643    c-36.998,43.156-30.432,85.986-31.127,122.076c-1.796,3.584-2.806,7.571-2.806,11.774c0,16.089,14.634,28.9,31.975,28.096    c2.165,20.677,11.047,40.525,26.196,57.012c0.001,0,0.001,0.001,0.001,0.001c1.715,1.563,9.626,10.834,24.527,19.052v16.77    c0,1.337-0.849,2.527-2.109,2.959c-0.101,0.035-2.574,0.881-2.418,0.827c-58.324,20.004-4.746,1.62-70.242,24.576    c-1.713,0.576-10.243,2.299-18.194,8.214c-10.428,7.327-17.465,17.896-20.186,31.347    c-22.806,116.137-22.541,109.236-22.35,117.276c0.388,16.695,10.949,27.935,30.839,27.935c9.236,0,292.763,0,307.443,0    C430.156,511.999,441.005,500.071,440.571,482.07z M353.542,164.832c8.651-0.459,16.396,5.371,16.396,13.102    c0,7.807-7.827,13.556-16.396,13.103V164.832z M155.655,191.037c-0.314,0.017-0.629,0.025-0.944,0.025    c-8.521,0.001-15.452-5.889-15.452-13.127c0-7.807,7.827-13.556,16.396-13.103V191.037z M170.659,195.364    c0-11.794,0-21.566,0-39.601c0-13.347,11.867-23.535,25.083-21.622c29.49,4.256,72.562,2.563,110.285-29.682l0.11,0.029    c7.246,13.05,18.681,21.288,32.401,23.424v30.852c-0.021,35.333,2.992,55.667-12.51,80.713    c-1.364,1.734-10.509,18.535-32.004,29.929c-19.47,10.34-38.679,9.787-38.918,9.82c-0.101,0-1.109,0-1.009,0    C208.585,279.226,170.659,241.965,170.659,195.364z M231.382,338.334c-1.751-2.828-13.485-21.789-15.854-25.616    c8.338-7.059,6.028-15.577,6.43-23.941c18.525,6.447,37.788,7.436,58.329,2.153l-0.017-0.061c0.039-0.011,0.075-0.021,0.118-0.033    l0.018,0.061c0.712-0.225,4.24-1.074,9.632-3.149c0.551,8.1-2.222,17.672,6.448,24.987c-3.775,6.099-13.292,21.477-15.845,25.6    C265.093,344.11,246.953,344.119,231.382,338.334z M269.298,356.662l-13.286,21.467l-13.286-21.467    C251.547,358.003,260.472,358.004,269.298,356.662z M140.049,496.994h-37.758c-12.843,0-15.145-6.078-15.715-11.378    c-0.552-5.109,0.047-5.919,9.475-53.269l43.998,5.783V496.994z M222.971,496.993h-67.918v-65.444v-17.185    c0-4.144-3.359-7.502-7.502-7.502c-4.143,0-7.502,3.358-7.502,7.502v8.632l-41.061-5.397c10.08-50.584,9.754-49.437,10.623-52.099    c5.546-17.14,17.152-20.413,27.395-24.062l38.456-13.626l10.878,17.576c2.181,3.522,6.804,4.613,10.328,2.431    c3.523-2.181,4.611-6.804,2.431-10.327l-9.106-14.712l11.646-3.993c10.297,16.638,39.997,64.626,47.995,77.547    c2.923,4.723,9.823,4.745,12.758,0l29.693-47.975c0.001-0.001,0.002-0.002,0.003-0.004c7.329-11.843,11.015-17.798,18.307-29.578    l11.662,3.967l-60.94,98.461c-2.342,3.787-7.857,3.795-10.206,0l-33.258-53.736c-2.18-3.522-6.805-4.612-10.328-2.431    c-3.523,2.181-4.611,6.804-2.431,10.327l9.678,15.637h-13.894c-4.143,0-7.502,3.358-7.502,7.502s3.359,7.502,7.502,7.502h23.181    l13.69,22.12c-15.047,6.992-25.51,22.242-25.51,39.896C212.037,479.113,216.172,489.249,222.971,496.993z M256.012,496.994    c-15.975,0-28.971-12.997-28.971-28.971c0-15.975,12.996-28.971,28.971-28.971s28.971,12.996,28.971,28.971    C284.983,483.998,271.987,496.994,256.012,496.994z M364.475,406.863c-4.144,0-7.502,3.358-7.502,7.502c0,15.226,0,60.647,0,82.63    h-67.917c6.798-7.744,10.933-17.881,10.933-28.971c0-17.656-10.464-32.904-25.511-39.896l62.065-100.28    c45.614,16.114,36.647,13.058,44.23,15.301c6.362,2.425,9.564,5.334,10.173,5.705l-0.001,0.002c1.884,1.713,5.24,4.018,8.586,9.94    c4.742,8.611,3.846,12.688,13.507,58.805l-41.061,5.397v-8.632C371.977,410.221,368.619,406.863,364.475,406.863z" fill="#1c1714" data-original="#000000" style=""/>
	</g>
</g>
<g xmlns="http://www.w3.org/2000/svg">
</g>
<g xmlns="http://www.w3.org/2000/svg">
</g>
<g xmlns="http://www.w3.org/2000/svg">
</g>
<g xmlns="http://www.w3.org/2000/svg">
</g>
<g xmlns="http://www.w3.org/2000/svg">
</g>
<g xmlns="http://www.w3.org/2000/svg">
</g>
<g xmlns="http://www.w3.org/2000/svg">
</g>
<g xmlns="http://www.w3.org/2000/svg">
</g>
<g xmlns="http://www.w3.org/2000/svg">
</g>
<g xmlns="http://www.w3.org/2000/svg">
</g>
<g xmlns="http://www.w3.org/2000/svg">
</g>
<g xmlns="http://www.w3.org/2000/svg">
</g>
<g xmlns="http://www.w3.org/2000/svg">
</g>
<g xmlns="http://www.w3.org/2000/svg">
</g>
<g xmlns="http://www.w3.org/2000/svg">
</g>
</g></svg>
