<?xml version="1.0"?>
<svg xmlns="http://www.w3.org/2000/svg" xmlns:xlink="http://www.w3.org/1999/xlink" xmlns:svgjs="http://svgjs.com/svgjs" version="1.1" width="512" height="512" x="0" y="0" viewBox="0 0 64 64" style="enable-background:new 0 0 512 512" xml:space="preserve" class=""><g><g xmlns="http://www.w3.org/2000/svg" fill="rgb(0,0,0)"><path d="m45.2 58.77a1 1 0 0 1 -1-1v-13.58a1 1 0 0 1 .29-.7 16.57 16.57 0 1 0 -28.29-11.7v.55.22a1 1 0 0 1 -.14.52l-4.81 8.34h2.35a1 1 0 0 1 1 1v6.93a3.75 3.75 0 0 0 3.74 3.74h7.49a1 1 0 0 1 1 1v3.68a1 1 0 0 1 -2 0v-2.68h-6.47a5.75 5.75 0 0 1 -5.74-5.74v-5.93h-3.08a1 1 0 0 1 -.86-.5 1 1 0 0 1 0-1l5.53-9.59c0-.18 0-.36 0-.54a18.57 18.57 0 1 1 32 12.81v13.17a1 1 0 0 1 -1.01 1z" fill="#1c1714" data-original="#000000" style="" class=""/><path d="m30.06 55.09h-5.06a1 1 0 1 1 0-2h5a1 1 0 1 1 0 2z" fill="#1c1714" data-original="#000000" style="" class=""/><path d="m42.3 47.14a1 1 0 0 1 -.56-1.83l2.9-2a1 1 0 0 1 1.12 1.69l-2.9 2a1 1 0 0 1 -.56.14z" fill="#1c1714" data-original="#000000" style="" class=""/><path d="m32.5 9.77a1 1 0 0 1 -1-1v-2.39a1 1 0 0 1 2 0v2.39a1 1 0 0 1 -1 1z" fill="#1c1714" data-original="#000000" style="" class=""/><path d="m41 11.51a1 1 0 0 1 -.4-.09 1 1 0 0 1 -.51-1.32l1-2.18a1 1 0 0 1 1.32-.51 1 1 0 0 1 .51 1.33l-1 2.18a1 1 0 0 1 -.92.59z" fill="#1c1714" data-original="#000000" style="" class=""/><path d="m48.13 16.57a1 1 0 0 1 -.75-.33 1 1 0 0 1 .07-1.42l1.78-1.6a1 1 0 0 1 1.34 1.49l-1.77 1.6a1 1 0 0 1 -.67.26z" fill="#1c1714" data-original="#000000" style="" class=""/><path d="m52.55 24.06a1 1 0 0 1 -.95-.69 1 1 0 0 1 .64-1.26l2.27-.74a1 1 0 1 1 .62 1.9l-2.27.73a.81.81 0 0 1 -.31.06z" fill="#1c1714" data-original="#000000" style="" class=""/><path d="m12.62 24.58a1 1 0 0 1 -.3 0l-2.32-.76a1 1 0 0 1 .6-1.91l2.28.72a1 1 0 0 1 -.3 1.95z" fill="#1c1714" data-original="#000000" style="" class=""/><path d="m16.85 17a1 1 0 0 1 -.66-.25l-1.79-1.61a1 1 0 1 1 1.33-1.5l1.78 1.58a1 1 0 0 1 .09 1.41 1 1 0 0 1 -.75.37z" fill="#1c1714" data-original="#000000" style="" class=""/><path d="m23.81 11.74a1 1 0 0 1 -.91-.59l-.99-2.15a1 1 0 1 1 1.82-.83l1 2.17a1 1 0 0 1 -.49 1.32.92.92 0 0 1 -.43.08z" fill="#1c1714" data-original="#000000" style="" class=""/><path d="m35 44.25a1 1 0 0 1 -.3 0l-5.07-1.59a1 1 0 0 1 -.68-.78 8.67 8.67 0 0 0 -2.54-4.12l-.25-.21a10.42 10.42 0 1 1 14-.06l-.32.29a5.33 5.33 0 0 0 -2 2.75 1 1 0 1 1 -1.9-.64 7.36 7.36 0 0 1 2.57-3.6l.33-.29a8.41 8.41 0 1 0 -14.11-6.18 8.48 8.48 0 0 0 2.73 6.18l.28.23a11.11 11.11 0 0 1 3 4.65l4.53 1.42a1 1 0 0 1 -.3 2z" fill="#1c1714" data-original="#000000" style="" class=""/><path d="m35 47.88a1 1 0 0 1 -.25 0l-4.39-1.14a1 1 0 0 1 .5-1.94l4.39 1.14a1 1 0 0 1 .75 1.19 1 1 0 0 1 -1 .75z" fill="#1c1714" data-original="#000000" style="" class=""/><path d="m32.46 35.79a1 1 0 0 1 -.49-.13 1 1 0 0 1 -.39-1.35l2.05-3.71-3.26.4a1 1 0 0 1 -1-.48 1 1 0 0 1 0-1.09l3.63-5.11a1 1 0 0 1 1.4-.25 1 1 0 0 1 .24 1.39l-2.27 3.27 3-.33a1 1 0 0 1 .94.43 1 1 0 0 1 0 1l-3 5.4a1 1 0 0 1 -.85.56z" fill="#1c1714" data-original="#000000" style="" class=""/></g></g></svg>
