<?xml version="1.0"?>
<svg xmlns="http://www.w3.org/2000/svg" xmlns:xlink="http://www.w3.org/1999/xlink" xmlns:svgjs="http://svgjs.com/svgjs" version="1.1" width="512" height="512" x="0" y="0" viewBox="0 0 64 64" style="enable-background:new 0 0 512 512" xml:space="preserve" class=""><g><g xmlns="http://www.w3.org/2000/svg"><path d="m33 35.697h2v3.606h-2z" transform="matrix(.832 -.555 .555 .832 -15.091 25.158)" fill="#1c1714" data-original="#000000" style="" class=""/><path d="m63 48c0-3.733-2.628-6.939-6.166-7.778l1.391-4.867-2.959-.987 1.121-3.368h-3.22c1.214-2.841 1.833-5.86 1.833-9v-19c0-1.103-.897-2-2-2h-8c-1.103 0-2 .897-2 2v19c0 3.211-1.376 6.181-3.776 8.273-1.259-.802-2.747-1.273-4.347-1.273h-5.754c-1.6 0-3.088.471-4.347 1.273-2.4-2.092-3.776-5.062-3.776-8.273v-19c0-1.103-.897-2-2-2h-8c-1.103 0-2 .897-2 2v19c0 3.14.619 6.159 1.833 9h-3.22l1.122 3.367-2.959.987 1.391 4.867c-3.539.84-6.167 4.046-6.167 7.779 0 3.01 1.673 5.635 4.136 7-2.463 1.365-4.136 3.99-4.136 7v1h62v-1c0-3.01-1.673-5.635-4.136-7 2.463-1.365 4.136-3.99 4.136-7zm-2.82-3h-3.365c.113-.314.185-.648.185-1 0-.696-.248-1.329-.647-1.839 1.633.38 3.007 1.432 3.827 2.839zm-7.18-2h1c.551 0 1 .448 1 1s-.449 1-1 1h-1zm2.775-6.354-1.259 4.407c-.168-.03-.339-.053-.516-.053h-1-1c-2.354 0-4.662-.81-6.499-2.28l-1.27-1.015c-.361-.289-.787-.485-1.233-.596-.002-1.452-.392-2.813-1.065-3.993.39-.076.787-.116 1.19-.116h10.49l-.878 2.633zm-.775 23.425v.929h-5.382l-1.464-2.928.768-1.152 2.78 1.668.788-3.937c1.539 1.325 2.51 3.28 2.51 5.42zm-43.49-5.42.788 3.937 2.78-1.668.768 1.152-1.464 2.928h-5.382v-.929c0-2.14.971-4.095 2.51-5.42zm27.49-13.651h1c.551 0 1 .448 1 1s-.449 1-1 1h-1zm-.101 4h.101v1c0 2.234 1.483 4.108 3.508 4.747l-.177.353c-.66.133-1.289.363-1.9.636-1.258-1.31-2.903-2.256-4.762-2.635l-.177-.354c1.715-.541 3.043-1.961 3.407-3.747zm8.483 6 .329.658-1.711 1.14-1.711-1.14.329-.658zm-.917 6h-.93l-.74-1.111 1.205-.723 1.205.723zm-3.681-3.942 1.347.898-1.681 1.009c-.204-.56-.468-1.093-.773-1.598.358-.133.728-.236 1.107-.309zm.294 3.862.768 1.152-.846 1.692v-1.692c0-.359-.029-.713-.07-1.063zm-10.613-1.92h-.93l-.74-1.111 1.205-.723 1.205.723zm-3.68-3.942 1.346.897-2.428 1.457-.381-1.904c.462-.201.953-.35 1.463-.45zm5.085.897 1.346-.897c.509.1 1 .248 1.463.45l-.381 1.904zm-.488-2.955.329.658-1.711 1.14-1.711-1.14.329-.658zm-5.051.102c-1.86.379-3.504 1.324-4.762 2.635-.612-.273-1.241-.502-1.9-.636l-.177-.353c2.025-.64 3.508-2.514 3.508-4.748v-1h.101c.364 1.786 1.692 3.206 3.407 3.747zm-7.331 10.662-.846-1.692.768-1.152.148.089c-.041.35-.07.703-.07 1.063zm-1.618-8.764.329.658-1.711 1.14-1.711-1.14.329-.658zm-1.847 6-.74-1.111 1.205-.723 1.205.723-.74 1.111zm4.015-2.036-1.681-1.009 1.347-.898c.379.073.748.176 1.108.308-.306.507-.569 1.039-.774 1.599zm3.45-11.964h-1c-.551 0-1-.448-1-1s.449-1 1-1h1zm-3.985-3.732c.071-.057.159-.084.24-.123l.286 1.145c-.339.485-.541 1.074-.541 1.71 0 1.302.839 2.402 2 2.816v1.184c0 1.654-1.346 3-3 3h-4c-1.654 0-3-1.346-3-3v-3.041c2.454-.2 4.819-1.133 6.749-2.677zm-6.23 13.79 1.346.897-2.428 1.457-.381-1.904c.462-.201.953-.35 1.463-.45zm2.833 5.942h.764l1 2h-2.764zm5.382-.929c0-2.14.971-4.096 2.51-5.421l.788 3.937 2.78-1.668.819 1.228-1.618 4.853h-5.279zm8.721-1.071h.558l1.333 4h-3.225zm2.382-.852.819-1.228 2.78 1.668.788-3.937c1.54 1.325 2.51 3.281 2.51 5.421v2.928h-5.279zm11.515 2.852h.764l1 2h-2.764zm4.68-3.588-2.428-1.457 1.346-.897c.509.1 1 .248 1.463.45zm-2.298-6.412h-4c-1.654 0-3-1.346-3-3v-1.184c1.161-.414 2-1.514 2-2.816 0-.637-.202-1.225-.542-1.711l.286-1.145c.081.04.169.067.239.123l1.268 1.014c1.93 1.545 4.294 2.478 6.749 2.678v3.041c0 1.654-1.346 3-3 3zm5-46v4h-8v-4zm-8 19v-13h8v13c0 3.159-.688 6.181-2.031 9h-7.846c-.683 0-1.351.093-2.003.259 2.481-2.433 3.88-5.726 3.88-9.259zm-10.123 9c3.376 0 6.123 2.747 6.123 6.123 0 .501-.062 1.001-.183 1.485l-.12.481c-.225-.053-.456-.089-.697-.089h-1v-2h-2v7c0 1.654-1.346 3-3 3h-4c-1.654 0-3-1.346-3-3v-5c0-.933.641-1.718 1.506-1.938l1.662 2.493 1.664-1.109-2.297-3.446h-.535c-2.206 0-4 1.794-4 4h-1c-.241 0-.472.036-.697.09l-.121-.482c-.12-.484-.182-.984-.182-1.485 0-3.376 2.747-6.123 6.123-6.123zm-15.877-28v4h-8v-4zm-8 19v-13h8v13c0 3.533 1.399 6.826 3.88 9.259-.652-.166-1.32-.259-2.003-.259h-7.846c-1.343-2.819-2.031-5.841-2.031-9zm.265 13.633-.878-2.633h10.49c.403 0 .8.04 1.189.116-.673 1.18-1.062 2.541-1.065 3.993-.445.111-.872.308-1.234.596l-1.268 1.016c-1.837 1.469-4.145 2.279-6.499 2.279h-1-1c-.177 0-.348.023-.517.052l-1.259-4.407zm-.265 9.367h-1c-.551 0-1-.448-1-1s.449-1 1-1h1zm-3.353-2.839c-.399.51-.647 1.143-.647 1.839 0 .352.072.686.184 1h-3.364c.82-1.407 2.194-2.459 3.827-2.839zm-4.647 5.839c0-.34.034-.674.09-1h8.011c.364 1.786 1.692 3.206 3.407 3.747l-.177.354c-1.972.401-3.697 1.444-4.981 2.88-.117.007-.232.019-.35.019-3.309 0-6-2.691-6-6zm4.924 8.098c-.59 1.21-.924 2.56-.924 3.973v.929h-3.917c.419-2.483 2.368-4.453 4.841-4.902zm52.993 4.902h-3.917v-.929c0-1.413-.334-2.763-.924-3.974 2.473.45 4.422 2.42 4.841 4.903zm-5.917-7c-.118 0-.233-.012-.35-.019-1.284-1.435-3.009-2.478-4.981-2.88l-.177-.354c1.715-.541 3.043-1.962 3.407-3.747h8.011c.056.326.09.66.09 1 0 3.309-2.691 6-6 6z" fill="#1c1714" data-original="#000000" style="" class=""/><path d="m1 7h2v2h-2z" fill="#1c1714" data-original="#000000" style="" class=""/><path d="m1 11h2v2h-2z" fill="#1c1714" data-original="#000000" style="" class=""/><path d="m1 15h2v14h-2z" fill="#1c1714" data-original="#000000" style="" class=""/><path d="m5 21h2v6h-2z" fill="#1c1714" data-original="#000000" style="" class=""/><path d="m61 7h2v2h-2z" fill="#1c1714" data-original="#000000" style="" class=""/><path d="m61 11h2v2h-2z" fill="#1c1714" data-original="#000000" style="" class=""/><path d="m61 15h2v14h-2z" fill="#1c1714" data-original="#000000" style="" class=""/><path d="m57 21h2v6h-2z" fill="#1c1714" data-original="#000000" style="" class=""/><path d="m26.219 21.375 1.562 1.25 9.3-11.625h-7.037l5.746-7.386-1.58-1.228-8.254 10.614h6.963z" fill="#1c1714" data-original="#000000" style="" class=""/></g></g></svg>
