<?xml version="1.0" encoding="iso-8859-1"?>
<!-- Generator: Adobe Illustrator 19.0.0, SVG Export Plug-In . SVG Version: 6.00 Build 0)  -->
<svg version="1.1" id="Capa_1" xmlns="http://www.w3.org/2000/svg" xmlns:xlink="http://www.w3.org/1999/xlink" x="0px" y="0px"
	 viewBox="0 0 512 512" style="enable-background:new 0 0 512 512;" xml:space="preserve">
<g>
	<g>
		<path d="M256,192.8c-34.849,0-63.201,28.352-63.201,63.2c0,34.848,28.352,63.2,63.201,63.2c34.848,0,63.199-28.352,63.199-63.2
			S290.849,192.8,256,192.8z M256,289.2c-18.307,0-33.201-14.894-33.201-33.2c0-18.306,14.894-33.2,33.201-33.2
			c18.306,0,33.199,14.894,33.199,33.2C289.199,274.306,274.307,289.2,256,289.2z"/>
	</g>
</g>
<g>
	<g>
		<path d="M437.016,74.981C388.663,26.629,324.376,0,256,0C187.621,0,123.333,26.629,74.981,74.982C26.629,123.333,0,187.62,0,256
			c0,48.987,13.884,96.603,40.152,137.697c23.211,36.313,55.061,66.093,92.629,86.748c-1.252,4.732-2.237,9.547-2.936,14.43
			c-0.616,4.306,0.667,8.666,3.516,11.952c2.849,3.285,6.984,5.173,11.333,5.173h222.611c4.349,0,8.484-1.888,11.333-5.173
			c2.849-3.286,4.132-7.646,3.516-11.952c-0.699-4.883-1.684-9.699-2.936-14.431c37.569-20.655,69.418-50.435,92.629-86.747
			C498.116,352.603,512,304.988,512,256C512,187.621,485.371,123.334,437.016,74.981z M163.622,482
			c13.119-38.845,50.174-66.399,92.378-66.399c42.204,0,79.258,27.555,92.377,66.399H163.622z M126.4,256
			c0-71.462,58.139-129.6,129.601-129.6c71.461,0,129.6,58.138,129.6,129.6S327.462,385.601,256,385.601
			C184.539,385.601,126.4,327.462,126.4,256z M368.055,452.324c-7.172-13.218-16.69-25.183-28.206-35.253
			c-6.37-5.57-13.237-10.448-20.484-14.602C375.933,377.902,415.6,321.5,415.6,256c0-88.004-71.596-159.6-159.6-159.6
			C167.997,96.401,96.4,167.996,96.4,256c0,65.5,39.667,121.901,96.235,146.469c-7.247,4.154-14.114,9.032-20.484,14.602
			c-11.516,10.071-21.034,22.036-28.206,35.253C73.284,412.111,30,338.214,30,256C30,131.383,131.383,30,256,30s226,101.383,226,226
			C482,338.213,438.716,412.11,368.055,452.324z"/>
	</g>
</g>
<g>
</g>
<g>
</g>
<g>
</g>
<g>
</g>
<g>
</g>
<g>
</g>
<g>
</g>
<g>
</g>
<g>
</g>
<g>
</g>
<g>
</g>
<g>
</g>
<g>
</g>
<g>
</g>
<g>
</g>
</svg>
