<?xml version="1.0"?>
<svg xmlns="http://www.w3.org/2000/svg" xmlns:xlink="http://www.w3.org/1999/xlink" xmlns:svgjs="http://svgjs.com/svgjs" version="1.1" width="512" height="512" x="0" y="0" viewBox="0 0 512 512" style="enable-background:new 0 0 512 512" xml:space="preserve" class=""><g>
<g xmlns="http://www.w3.org/2000/svg">
	<g>
		<path d="M191.153,192.8c-34.849,0-63.199,28.352-63.199,63.2c0,34.85,28.351,63.201,63.199,63.201    c34.85,0,63.201-28.352,63.201-63.201S226.002,192.8,191.153,192.8z" fill="#1c1714" data-original="#000000" style=""/>
	</g>
</g>
<g xmlns="http://www.w3.org/2000/svg">
	<g>
		<path d="M317.308,494.875c-4.304-30.08-19.328-57.711-42.305-77.804c-23.208-20.294-52.986-31.471-83.85-31.471    c-30.862,0-60.641,11.177-83.849,31.471c-22.978,20.093-38.001,47.724-42.305,77.804c-0.616,4.306,0.667,8.666,3.516,11.951    c2.85,3.287,6.984,5.174,11.333,5.174h222.611c4.349,0,8.484-1.888,11.333-5.174C316.641,503.541,317.924,499.179,317.308,494.875    z" fill="#1c1714" data-original="#000000" style=""/>
	</g>
</g>
<g xmlns="http://www.w3.org/2000/svg">
	<g>
		<path d="M191.153,96.4c-8.284,0-15,6.716-15,15s6.716,15,15,15c71.462,0,129.6,58.139,129.6,129.6c0,8.284,6.716,15,15,15    s15-6.716,15-15C350.753,167.996,279.157,96.4,191.153,96.4z" fill="#1c1714" data-original="#000000" style=""/>
	</g>
</g>
<g xmlns="http://www.w3.org/2000/svg">
	<g>
		<path d="M372.169,74.981C323.816,26.629,259.53,0,191.153,0c-8.284,0-15,6.716-15,15s6.716,15,15,15    c124.617,0,226,101.383,226,226c0,8.284,6.716,15,15,15s15-6.716,15-15C447.153,187.621,420.524,123.334,372.169,74.981z" fill="#1c1714" data-original="#000000" style=""/>
	</g>
</g>
<g xmlns="http://www.w3.org/2000/svg">
</g>
<g xmlns="http://www.w3.org/2000/svg">
</g>
<g xmlns="http://www.w3.org/2000/svg">
</g>
<g xmlns="http://www.w3.org/2000/svg">
</g>
<g xmlns="http://www.w3.org/2000/svg">
</g>
<g xmlns="http://www.w3.org/2000/svg">
</g>
<g xmlns="http://www.w3.org/2000/svg">
</g>
<g xmlns="http://www.w3.org/2000/svg">
</g>
<g xmlns="http://www.w3.org/2000/svg">
</g>
<g xmlns="http://www.w3.org/2000/svg">
</g>
<g xmlns="http://www.w3.org/2000/svg">
</g>
<g xmlns="http://www.w3.org/2000/svg">
</g>
<g xmlns="http://www.w3.org/2000/svg">
</g>
<g xmlns="http://www.w3.org/2000/svg">
</g>
<g xmlns="http://www.w3.org/2000/svg">
</g>
</g></svg>
