<?xml version="1.0"?>
<svg xmlns="http://www.w3.org/2000/svg" xmlns:xlink="http://www.w3.org/1999/xlink" xmlns:svgjs="http://svgjs.com/svgjs" version="1.1" width="512" height="512" x="0" y="0" viewBox="0 0 64 64" style="enable-background:new 0 0 512 512" xml:space="preserve" class=""><g><path xmlns="http://www.w3.org/2000/svg" d="m57.812 14.867h-45.623c-1.655 0-3.01 1.354-3.01 3.009v19.427c0 1.655 1.354 3.009 3.01 3.009l16.811.048v8.772h6l6.252-8.821h16.56c1.654 0 3.008-1.354 3.008-3.009v-19.426c0-1.655-1.353-3.009-3.008-3.009z" fill="#efd1d1" data-original="#db785a" style="" class=""/><path xmlns="http://www.w3.org/2000/svg" d="m35 49.633h-6c-.276 0-.5-.224-.5-.5v-8.274l-16.312-.047c-1.935 0-3.509-1.574-3.509-3.509v-19.427c0-1.935 1.574-3.509 3.51-3.509h45.623c1.935 0 3.508 1.574 3.508 3.509v19.427c0 1.935-1.573 3.509-3.508 3.509h-16.301l-6.103 8.61c-.094.132-.246.211-.408.211zm-5.5-1h5.241l6.103-8.61c.094-.132.246-.211.408-.211h16.561c1.383 0 2.508-1.125 2.508-2.509v-19.427c0-1.383-1.125-2.509-2.508-2.509h-45.624c-1.384 0-2.51 1.125-2.51 2.509v19.427c0 1.383 1.126 2.509 2.51 2.509l16.812.048c.276.001.499.225.499.5z" fill="#1c1714" data-original="#63312d" style="" class=""/><path xmlns="http://www.w3.org/2000/svg" d="m51.812 14.867h-45.623c-1.655 0-3.01 1.354-3.01 3.009v19.427c0 1.655 1.355 3.009 3.01 3.009h16.561l6.25 8.821 6.252-8.821h16.56c1.654 0 3.008-1.354 3.008-3.009v-19.427c0-1.655-1.353-3.009-3.008-3.009z" fill="#ff0404" data-original="#f9a287" style="" class=""/><path xmlns="http://www.w3.org/2000/svg" d="m5.18 39.303v-19.427c0-1.655 1.354-3.009 3.01-3.009h45.623c.303 0 .59.059.865.143-.376-1.233-1.514-2.143-2.865-2.143h-45.624c-1.655 0-3.01 1.354-3.01 3.009v19.427c0 1.352.91 2.49 2.144 2.866-.085-.276-.143-.563-.143-.866z" fill="#ffc8bb" data-original="#ffc8bb" style="" class=""/><g xmlns="http://www.w3.org/2000/svg" fill="#63312d"><path d="m29 49.633c-.162 0-.314-.079-.408-.211l-6.101-8.61h-16.302c-1.936 0-3.51-1.574-3.51-3.509v-19.427c0-1.935 1.574-3.509 3.51-3.509h45.623c1.935 0 3.508 1.574 3.508 3.509v19.427c0 1.935-1.573 3.509-3.508 3.509h-16.301l-6.103 8.61c-.094.132-.246.211-.408.211zm-22.811-34.266c-1.384 0-2.51 1.125-2.51 2.509v19.427c0 1.383 1.126 2.509 2.51 2.509h16.561c.162 0 .314.079.408.211l5.842 8.245 5.844-8.245c.094-.132.246-.211.408-.211h16.561c1.383 0 2.508-1.125 2.508-2.509v-19.427c0-1.383-1.125-2.509-2.508-2.509z" fill="#1c1714" data-original="#63312d" style="" class=""/><path d="m23.999 24.228h-1.359v-1.52h3.04v10.656h-1.681z" fill="#1c1714" data-original="#63312d" style="" class=""/><path d="m28.193 23.205h1.799l3.566 7.967 3.552-7.967h1.784v10.16h-1.667v-6.958l-3.099 6.958h-1.155l-3.114-6.958v6.958h-1.666z" fill="#1c1714" data-original="#63312d" style="" class=""/><path d="m45.981 24.36v3.026h2.953v1.403h-2.953v3.026h-1.55v-3.026h-2.952v-1.403h2.952v-3.026z" fill="#1c1714" data-original="#63312d" style="" class=""/></g><path xmlns="http://www.w3.org/2000/svg" d="m16.451 25.529c0 1.743-1.412 3.155-3.156 3.155-1.74 0-3.152-1.413-3.152-3.155 0-1.743 1.412-3.154 3.152-3.154 1.744 0 3.156 1.412 3.156 3.154z" fill="#f8f3f3" data-original="#f8f3f3" style="" class=""/><path xmlns="http://www.w3.org/2000/svg" d="m13.295 29.185c-2.014 0-3.652-1.64-3.652-3.655s1.639-3.654 3.652-3.654c2.016 0 3.656 1.639 3.656 3.654s-1.64 3.655-3.656 3.655zm0-6.31c-1.463 0-2.652 1.191-2.652 2.654 0 1.464 1.189 2.655 2.652 2.655 1.465 0 2.656-1.191 2.656-2.655 0-1.463-1.191-2.654-2.656-2.654z" fill="#1c1714" data-original="#63312d" style="" class=""/><path xmlns="http://www.w3.org/2000/svg" d="m18.045 33.14c-.159-2.488-2.221-4.455-4.75-4.455-2.525 0-4.586 1.967-4.746 4.455z" fill="#f8f3f3" data-original="#f8f3f3" style="" class=""/><path xmlns="http://www.w3.org/2000/svg" d="m18.045 33.64h-9.496c-.138 0-.271-.057-.364-.158-.095-.101-.144-.236-.135-.374.178-2.76 2.481-4.923 5.245-4.923 2.767 0 5.072 2.163 5.249 4.923.009.138-.04.273-.135.374-.094.101-.226.158-.364.158zm-8.929-1h8.362c-.38-1.976-2.124-3.455-4.184-3.455-2.056 0-3.798 1.479-4.178 3.455z" fill="#1c1714" data-original="#63312d" style="" class=""/></g></svg>
