<?xml version="1.0" encoding="UTF-8" standalone="no"?>
<!-- Created with Inkscape (http://www.inkscape.org/) -->

<svg
   xmlns:dc="http://purl.org/dc/elements/1.1/"
   xmlns:cc="http://creativecommons.org/ns#"
   xmlns:rdf="http://www.w3.org/1999/02/22-rdf-syntax-ns#"
   xmlns:svg="http://www.w3.org/2000/svg"
   xmlns="http://www.w3.org/2000/svg"
   xmlns:sodipodi="http://sodipodi.sourceforge.net/DTD/sodipodi-0.dtd"
   xmlns:inkscape="http://www.inkscape.org/namespaces/inkscape"
   version="1.1"
   id="svg3713"
   xml:space="preserve"
   width="1920"
   height="362"
   viewBox="0 0 1920 362.00001"
   sodipodi:docname="poziom_czarne.svg"
   inkscape:version="0.92.4 (5da689c313, 2019-01-14)"><metadata
     id="metadata3719"><rdf:RDF><cc:Work
         rdf:about=""><dc:format>image/svg+xml</dc:format><dc:type
           rdf:resource="http://purl.org/dc/dcmitype/StillImage" /><dc:title /></cc:Work></rdf:RDF></metadata><defs
     id="defs3717"><clipPath
       clipPathUnits="userSpaceOnUse"
       id="clipPath3729"><path
         d="M 0,153.071 H 266.457 V 0 H 0 Z"
         id="path3727"
         inkscape:connector-curvature="0" /></clipPath></defs><sodipodi:namedview
     pagecolor="#ffffff"
     bordercolor="#666666"
     borderopacity="1"
     objecttolerance="10"
     gridtolerance="10"
     guidetolerance="10"
     inkscape:pageopacity="0"
     inkscape:pageshadow="2"
     inkscape:window-width="1920"
     inkscape:window-height="1001"
     id="namedview3715"
     showgrid="false"
     inkscape:zoom="0.5"
     inkscape:cx="778.0456"
     inkscape:cy="455.22395"
     inkscape:window-x="-9"
     inkscape:window-y="-9"
     inkscape:window-maximized="1"
     inkscape:current-layer="g4651"
     showguides="true"
     inkscape:guide-bbox="true" /><g
     id="g3721"
     inkscape:groupmode="layer"
     inkscape:label="adawards_logo"
     transform="matrix(1.3333333,0,0,-1.3333333,0,362.00001)"><g
       id="g4651"
       transform="matrix(8.3886987,0,0,8.3886987,-398.13116,-289.43673)"
       style="fill:#ffffff;fill-opacity:1"><g
         transform="matrix(1.336113,0,0,1.336113,-426.60612,3.8407715)"
         id="g5150"
         style="fill:#0f0f0f;fill-opacity:1"><path
           d="m 373.74764,31.559127 v 0 l -7.23475,-0.03722 c 0.62452,1.805329 1.67194,3.330449 3.13709,4.574843 1.48118,1.257836 3.17638,2.042627 5.0846,2.355406 V 28.061695 h 3.46021 v 14.03782 h -2.29854 v -0.0098 c -1.84203,-0.07083 -3.60032,-0.487521 -5.26864,-1.251632 -1.61558,-0.743948 -3.04041,-1.75518 -4.27085,-3.0399 -1.24492,-1.28472 -2.206,-2.749352 -2.88327,-4.397516 -0.69741,-1.70193 -1.04741,-3.479858 -1.04741,-5.338953 z m 10.05546,7.04347 v 0 l 7.23423,0.03671 c -0.624,-1.805328 -1.67142,-3.330449 -3.13657,-4.574326 -1.48118,-1.258352 -3.17639,-2.042628 -5.08512,-2.355923 v 10.390461 h -3.45969 V 28.061693 h 2.29854 v 0.0098 c 1.84203,0.07031 3.60032,0.487521 5.26864,1.251114 1.61507,0.744984 3.0399,1.755183 4.27085,3.039903 1.2444,1.285235 2.206,2.749867 2.88327,4.398032 0.69689,1.701929 1.04741,3.480374 1.04741,5.338952 z"
           style="fill:#0f0f0f;fill-opacity:1;fill-rule:nonzero;stroke:none;stroke-width:0.51698977"
           id="path5140"
           inkscape:connector-curvature="0"
           sodipodi:nodetypes="cccccccccccccccccccccccccccccc" /><g
           id="g839"
           transform="translate(0,-0.21364763)"
           style="fill:#0f0f0f;fill-opacity:1"><g
             id="g5144"
             transform="matrix(0.6163069,0,0,0.6163069,408.50419,32.01902)"
             style="fill:#0f0f0f;fill-opacity:1"><path
               d="m 0,0 v -0.392 c 0.329,0.354 0.659,0.53 0.991,0.53 0.2,0 0.375,-0.054 0.526,-0.159 0.15,-0.105 0.275,-0.266 0.378,-0.481 0.172,0.215 0.346,0.376 0.522,0.481 0.179,0.105 0.354,0.159 0.534,0.159 0.279,0 0.502,-0.091 0.669,-0.272 0.216,-0.233 0.327,-0.488 0.327,-0.765 v -2.707 h 0.328 c 0.091,0 0.157,-0.018 0.196,-0.053 C 4.512,-3.694 4.533,-3.741 4.533,-3.8 4.533,-3.854 4.512,-3.9 4.471,-3.938 4.432,-3.975 4.366,-3.993 4.275,-3.993 H 3.559 v 3.056 c 0,0.197 -0.06,0.361 -0.18,0.49 -0.119,0.128 -0.258,0.193 -0.416,0.193 -0.139,0 -0.289,-0.054 -0.446,-0.159 C 2.36,-0.519 2.182,-0.728 1.981,-1.038 v -2.568 h 0.325 c 0.091,0 0.157,-0.018 0.198,-0.053 0.039,-0.035 0.059,-0.082 0.059,-0.141 0,-0.054 -0.02,-0.1 -0.059,-0.138 C 2.463,-3.975 2.397,-3.993 2.306,-3.993 H 1.589 v 3.029 c 0,0.206 -0.059,0.376 -0.181,0.51 -0.12,0.134 -0.258,0.2 -0.408,0.2 -0.137,0 -0.274,-0.044 -0.41,-0.134 C 0.403,-0.514 0.206,-0.73 0,-1.038 v -2.568 h 0.327 c 0.092,0 0.158,-0.018 0.198,-0.053 0.04,-0.035 0.06,-0.082 0.06,-0.141 0,-0.054 -0.02,-0.1 -0.06,-0.138 -0.04,-0.037 -0.106,-0.055 -0.198,-0.055 h -1.041 c -0.094,0 -0.16,0.018 -0.199,0.055 -0.041,0.038 -0.06,0.084 -0.06,0.138 0,0.059 0.019,0.106 0.06,0.141 0.039,0.035 0.105,0.053 0.199,0.053 h 0.327 v 3.214 h -0.327 c -0.094,0 -0.16,0.019 -0.199,0.055 -0.041,0.037 -0.06,0.084 -0.06,0.143 0,0.055 0.019,0.102 0.06,0.138 C -0.874,-0.02 -0.808,0 -0.714,0 Z M 11.85,-2.089 H 7.903 C 7.971,-2.589 8.18,-2.994 8.532,-3.3 8.885,-3.604 9.32,-3.759 9.84,-3.759 c 0.288,0 0.591,0.049 0.909,0.143 0.315,0.096 0.574,0.222 0.773,0.378 0.06,0.048 0.109,0.069 0.153,0.069 0.05,0 0.092,-0.019 0.13,-0.057 0.036,-0.039 0.055,-0.083 0.055,-0.136 0,-0.052 -0.025,-0.103 -0.074,-0.152 -0.149,-0.154 -0.41,-0.297 -0.787,-0.43 -0.377,-0.135 -0.763,-0.202 -1.159,-0.202 -0.664,0 -1.218,0.217 -1.663,0.653 -0.444,0.434 -0.666,0.962 -0.666,1.579 0,0.563 0.208,1.044 0.625,1.447 0.417,0.404 0.932,0.605 1.547,0.605 0.633,0 1.153,-0.206 1.563,-0.62 0.408,-0.414 0.611,-0.949 0.604,-1.607 m -0.392,0.391 c -0.077,0.427 -0.278,0.775 -0.606,1.043 -0.328,0.267 -0.717,0.401 -1.169,0.401 -0.452,0 -0.84,-0.132 -1.166,-0.396 C 8.191,-0.915 7.988,-1.265 7.908,-1.698 Z m 8.185,3.491 v -5.399 h 0.516 c 0.096,0 0.164,-0.018 0.203,-0.053 0.039,-0.035 0.06,-0.082 0.06,-0.141 0,-0.054 -0.021,-0.1 -0.06,-0.138 -0.039,-0.037 -0.107,-0.055 -0.203,-0.055 h -0.908 v 0.769 c -0.448,-0.614 -1.02,-0.922 -1.71,-0.922 -0.352,0 -0.687,0.092 -1.008,0.281 -0.322,0.184 -0.575,0.449 -0.762,0.794 -0.186,0.344 -0.278,0.699 -0.278,1.065 0,0.368 0.092,0.724 0.278,1.068 0.187,0.342 0.44,0.607 0.762,0.793 0.321,0.188 0.657,0.283 1.012,0.283 0.677,0 1.245,-0.307 1.706,-0.922 v 2.185 h -0.516 c -0.096,0 -0.164,0.018 -0.203,0.056 -0.041,0.036 -0.06,0.085 -0.06,0.144 0,0.054 0.019,0.1 0.06,0.136 0.039,0.037 0.107,0.056 0.203,0.056 z m -0.392,-3.799 c 0,0.491 -0.167,0.906 -0.5,1.245 -0.33,0.338 -0.725,0.507 -1.182,0.507 -0.462,0 -0.858,-0.169 -1.191,-0.507 -0.331,-0.339 -0.498,-0.754 -0.498,-1.245 0,-0.489 0.167,-0.903 0.498,-1.243 0.333,-0.34 0.729,-0.51 1.191,-0.51 0.457,0 0.852,0.17 1.182,0.51 0.333,0.34 0.5,0.754 0.5,1.243 m 6.677,2.992 h -0.571 v 1 h 0.571 z M 25.942,0 v -3.606 h 1.521 c 0.095,0 0.163,-0.018 0.202,-0.053 0.042,-0.035 0.061,-0.082 0.061,-0.141 0,-0.054 -0.019,-0.1 -0.061,-0.138 -0.039,-0.037 -0.107,-0.055 -0.202,-0.055 h -3.43 c -0.093,0 -0.159,0.018 -0.198,0.055 -0.042,0.038 -0.061,0.084 -0.061,0.138 0,0.059 0.019,0.106 0.061,0.141 0.039,0.035 0.105,0.053 0.198,0.053 h 1.522 v 3.214 h -1.13 c -0.093,0 -0.159,0.019 -0.201,0.055 -0.041,0.037 -0.062,0.083 -0.062,0.138 0,0.058 0.021,0.107 0.06,0.143 C 24.261,-0.02 24.329,0 24.425,0 Z m 8.899,-3.993 v 0.558 c -0.563,-0.473 -1.163,-0.711 -1.803,-0.711 -0.465,0 -0.826,0.118 -1.087,0.352 -0.262,0.236 -0.393,0.524 -0.393,0.866 0,0.374 0.171,0.702 0.516,0.982 0.345,0.28 0.847,0.419 1.508,0.419 0.178,0 0.372,-0.011 0.581,-0.035 0.209,-0.022 0.436,-0.058 0.678,-0.107 v 0.627 c 0,0.212 -0.099,0.396 -0.296,0.554 -0.197,0.156 -0.491,0.234 -0.884,0.234 -0.303,0 -0.724,-0.088 -1.269,-0.264 -0.098,-0.03 -0.16,-0.045 -0.189,-0.045 -0.048,0 -0.091,0.018 -0.127,0.055 -0.034,0.036 -0.053,0.084 -0.053,0.139 0,0.052 0.017,0.094 0.046,0.125 0.043,0.045 0.218,0.108 0.521,0.188 0.48,0.129 0.843,0.194 1.09,0.194 0.487,0 0.869,-0.121 1.142,-0.363 0.275,-0.24 0.411,-0.513 0.411,-0.817 v -2.564 h 0.517 c 0.096,0 0.162,-0.018 0.203,-0.053 0.039,-0.035 0.059,-0.082 0.059,-0.141 0,-0.054 -0.02,-0.1 -0.059,-0.138 -0.041,-0.037 -0.107,-0.055 -0.203,-0.055 z m 0,1.928 c -0.181,0.051 -0.373,0.089 -0.576,0.115 -0.202,0.022 -0.417,0.036 -0.642,0.036 -0.562,0 -1.001,-0.121 -1.319,-0.363 -0.239,-0.182 -0.359,-0.399 -0.359,-0.651 0,-0.234 0.092,-0.431 0.274,-0.591 0.184,-0.16 0.45,-0.24 0.801,-0.24 0.334,0 0.646,0.067 0.934,0.201 0.286,0.134 0.582,0.347 0.887,0.639 z m 17.003,-1.928 v 0.558 c -0.563,-0.473 -1.163,-0.711 -1.804,-0.711 -0.464,0 -0.827,0.118 -1.087,0.352 -0.262,0.236 -0.392,0.524 -0.392,0.866 0,0.374 0.171,0.702 0.516,0.982 0.343,0.28 0.846,0.419 1.507,0.419 0.178,0 0.373,-0.011 0.582,-0.035 0.209,-0.022 0.435,-0.058 0.678,-0.107 v 0.627 c 0,0.212 -0.099,0.396 -0.296,0.554 -0.197,0.156 -0.491,0.234 -0.884,0.234 -0.303,0 -0.724,-0.088 -1.269,-0.264 -0.098,-0.03 -0.161,-0.045 -0.189,-0.045 -0.048,0 -0.091,0.018 -0.127,0.055 -0.035,0.036 -0.053,0.084 -0.053,0.139 0,0.052 0.016,0.094 0.046,0.125 0.043,0.045 0.217,0.108 0.521,0.188 0.481,0.129 0.842,0.194 1.089,0.194 0.487,0 0.869,-0.121 1.143,-0.363 0.273,-0.24 0.411,-0.513 0.411,-0.817 v -2.564 h 0.515 c 0.096,0 0.163,-0.018 0.204,-0.053 0.039,-0.035 0.06,-0.082 0.06,-0.141 0,-0.054 -0.021,-0.1 -0.06,-0.138 -0.041,-0.037 -0.108,-0.055 -0.204,-0.055 z m 0,1.928 c -0.181,0.051 -0.374,0.089 -0.576,0.115 -0.203,0.022 -0.418,0.036 -0.643,0.036 -0.561,0 -1,-0.121 -1.319,-0.363 -0.238,-0.182 -0.358,-0.399 -0.358,-0.651 0,-0.234 0.091,-0.431 0.273,-0.591 0.185,-0.16 0.45,-0.24 0.801,-0.24 0.334,0 0.646,0.067 0.935,0.201 0.286,0.134 0.582,0.347 0.887,0.639 z m 8.179,1.354 V 0 h 0.909 c 0.093,0 0.158,-0.02 0.198,-0.056 0.039,-0.036 0.06,-0.085 0.06,-0.143 0,-0.055 -0.021,-0.101 -0.06,-0.138 -0.04,-0.036 -0.105,-0.055 -0.198,-0.055 h -0.521 v -3.869 c 0,-0.258 -0.056,-0.488 -0.165,-0.69 -0.075,-0.137 -0.197,-0.277 -0.371,-0.421 -0.171,-0.145 -0.329,-0.247 -0.47,-0.309 -0.141,-0.061 -0.33,-0.092 -0.567,-0.092 h -1.096 c -0.093,0 -0.159,0.017 -0.2,0.053 -0.04,0.034 -0.059,0.082 -0.059,0.14 0,0.058 0.019,0.107 0.059,0.143 0.041,0.037 0.107,0.055 0.2,0.055 l 1.11,-0.005 c 0.228,0 0.434,0.059 0.616,0.177 0.182,0.116 0.334,0.286 0.453,0.512 0.068,0.129 0.102,0.292 0.102,0.492 v 1.163 c -0.415,-0.569 -0.949,-0.853 -1.605,-0.853 -0.53,0 -0.99,0.197 -1.376,0.592 -0.385,0.395 -0.579,0.87 -0.579,1.427 0,0.557 0.194,1.031 0.579,1.425 0.386,0.393 0.846,0.59 1.376,0.59 0.656,0 1.19,-0.284 1.605,-0.849 m 0,-1.166 c 0,0.455 -0.155,0.839 -0.467,1.152 -0.312,0.313 -0.684,0.471 -1.119,0.471 -0.433,0 -0.806,-0.158 -1.115,-0.473 -0.311,-0.315 -0.466,-0.698 -0.466,-1.15 0,-0.454 0.155,-0.84 0.466,-1.154 0.309,-0.315 0.682,-0.473 1.115,-0.473 0.435,0 0.807,0.158 1.119,0.473 0.312,0.314 0.467,0.7 0.467,1.154 m 8.785,-0.212 h -3.947 c 0.067,-0.5 0.277,-0.905 0.629,-1.211 0.352,-0.304 0.788,-0.459 1.308,-0.459 0.287,0 0.59,0.049 0.909,0.143 0.316,0.096 0.574,0.222 0.774,0.378 0.058,0.048 0.107,0.069 0.152,0.069 0.049,0 0.092,-0.019 0.129,-0.057 0.036,-0.039 0.055,-0.083 0.055,-0.136 0,-0.052 -0.025,-0.103 -0.073,-0.152 -0.149,-0.154 -0.41,-0.297 -0.787,-0.43 -0.377,-0.135 -0.764,-0.202 -1.159,-0.202 -0.665,0 -1.218,0.217 -1.664,0.653 -0.443,0.434 -0.665,0.962 -0.665,1.579 0,0.563 0.207,1.044 0.624,1.447 0.418,0.404 0.932,0.605 1.547,0.605 0.634,0 1.154,-0.206 1.564,-0.62 0.409,-0.414 0.611,-0.949 0.604,-1.607 m -0.392,0.391 c -0.078,0.427 -0.279,0.775 -0.606,1.043 -0.328,0.267 -0.718,0.401 -1.17,0.401 -0.451,0 -0.84,-0.132 -1.166,-0.396 -0.326,-0.265 -0.528,-0.615 -0.608,-1.048 z M 73.452,0 v -0.586 c 0.27,0.274 0.513,0.463 0.733,0.566 0.217,0.106 0.464,0.158 0.736,0.158 0.296,0 0.566,-0.063 0.808,-0.19 0.173,-0.093 0.328,-0.244 0.469,-0.459 0.138,-0.212 0.209,-0.432 0.209,-0.656 v -2.439 h 0.328 c 0.091,0 0.157,-0.018 0.197,-0.053 0.04,-0.035 0.06,-0.082 0.06,-0.141 0,-0.054 -0.02,-0.1 -0.06,-0.138 -0.04,-0.037 -0.106,-0.055 -0.197,-0.055 h -1.038 c -0.096,0 -0.163,0.018 -0.202,0.055 -0.042,0.038 -0.061,0.084 -0.061,0.138 0,0.059 0.019,0.106 0.061,0.141 0.039,0.035 0.106,0.053 0.202,0.053 h 0.323 v 2.375 c 0,0.274 -0.101,0.504 -0.301,0.694 -0.2,0.188 -0.468,0.283 -0.801,0.283 -0.256,0 -0.477,-0.052 -0.665,-0.154 -0.187,-0.105 -0.454,-0.36 -0.801,-0.769 v -2.429 h 0.437 c 0.093,0 0.159,-0.018 0.198,-0.053 0.041,-0.035 0.06,-0.082 0.06,-0.141 0,-0.054 -0.019,-0.1 -0.06,-0.138 -0.039,-0.037 -0.105,-0.055 -0.198,-0.055 h -1.264 c -0.091,0 -0.158,0.018 -0.199,0.055 -0.039,0.038 -0.059,0.084 -0.059,0.138 0,0.059 0.02,0.106 0.059,0.141 0.041,0.035 0.108,0.053 0.199,0.053 h 0.439 v 3.214 h -0.327 c -0.093,0 -0.159,0.019 -0.198,0.055 -0.041,0.037 -0.061,0.084 -0.061,0.143 0,0.055 0.02,0.102 0.061,0.138 C 72.578,-0.02 72.644,0 72.737,0 Z M 84.31,-0.392 v 0.128 c 0,0.096 0.019,0.164 0.055,0.203 0.038,0.04 0.083,0.061 0.138,0.061 0.058,0 0.108,-0.021 0.143,-0.061 0.037,-0.039 0.056,-0.107 0.056,-0.203 v -0.877 c -0.004,-0.093 -0.022,-0.162 -0.056,-0.201 -0.037,-0.041 -0.085,-0.061 -0.143,-0.061 -0.05,0 -0.096,0.018 -0.13,0.053 -0.037,0.038 -0.057,0.095 -0.063,0.178 -0.018,0.22 -0.162,0.426 -0.431,0.622 -0.269,0.196 -0.631,0.296 -1.087,0.296 -0.574,0 -1.01,-0.18 -1.308,-0.54 -0.298,-0.358 -0.448,-0.77 -0.448,-1.235 0,-0.501 0.166,-0.914 0.495,-1.241 0.328,-0.325 0.754,-0.489 1.276,-0.489 0.3,0 0.608,0.057 0.92,0.167 0.313,0.11 0.594,0.288 0.846,0.534 0.064,0.063 0.121,0.092 0.171,0.092 0.052,0 0.096,-0.017 0.131,-0.052 0.036,-0.036 0.053,-0.08 0.053,-0.131 0,-0.133 -0.155,-0.3 -0.466,-0.502 -0.502,-0.329 -1.058,-0.495 -1.674,-0.495 -0.624,0 -1.136,0.2 -1.538,0.598 -0.401,0.399 -0.601,0.902 -0.601,1.514 0,0.625 0.205,1.142 0.615,1.554 0.411,0.412 0.927,0.618 1.552,0.618 0.594,0 1.092,-0.176 1.494,-0.53 m 6.399,-3.601 -1.797,3.601 h -0.115 c -0.092,0 -0.158,0.019 -0.198,0.055 -0.041,0.037 -0.06,0.083 -0.06,0.138 0,0.041 0.009,0.076 0.031,0.109 0.018,0.031 0.045,0.055 0.076,0.069 C 88.679,-0.007 88.73,0 88.797,0 h 1.06 c 0.093,0 0.159,-0.02 0.198,-0.056 0.041,-0.036 0.06,-0.085 0.06,-0.143 0,-0.055 -0.019,-0.101 -0.06,-0.138 -0.039,-0.036 -0.105,-0.055 -0.198,-0.055 h -0.522 l 1.582,-3.177 1.558,3.177 h -0.52 c -0.091,0 -0.158,0.019 -0.199,0.055 -0.039,0.037 -0.059,0.084 -0.059,0.143 0,0.055 0.02,0.102 0.059,0.138 C 91.797,-0.02 91.864,0 91.955,0 h 1.055 c 0.096,0 0.164,-0.02 0.203,-0.056 0.041,-0.036 0.06,-0.085 0.06,-0.143 0,-0.039 -0.01,-0.076 -0.036,-0.11 -0.025,-0.035 -0.052,-0.057 -0.083,-0.067 -0.029,-0.01 -0.116,-0.016 -0.258,-0.016 l -2.454,-4.995 h 0.604 c 0.093,0 0.16,-0.016 0.199,-0.051 0.041,-0.037 0.06,-0.084 0.06,-0.142 0,-0.055 -0.019,-0.101 -0.06,-0.139 -0.039,-0.036 -0.106,-0.054 -0.199,-0.054 h -2.231 c -0.092,0 -0.157,0.017 -0.198,0.053 -0.04,0.034 -0.061,0.082 -0.061,0.14 0,0.058 0.021,0.105 0.061,0.142 0.041,0.035 0.106,0.051 0.198,0.051 h 1.213 z"
               style="fill:#0f0f0f;fill-opacity:1;fill-rule:nonzero;stroke:none"
               id="path5142"
               inkscape:connector-curvature="0" /></g><path
             sodipodi:nodetypes="cccccccscccscccscccscccccccscccscccscccccccccscccsccccccsccsscccccccsccscccccscccscccccccccccccccccccccccccccccccccccccccccccccccccccccccscccsccccccscccscccccccccccccccccc"
             inkscape:connector-curvature="0"
             id="path5146"
             style="fill:#0f0f0f;fill-opacity:1;fill-rule:nonzero;stroke:none;stroke-width:0.56836718"
             d="m 475.62327,37.16728 v 0 c 0,0.372277 -0.0835,0.670102 -0.25008,0.891772 -0.16597,0.222795 -0.37569,0.400127 -0.62691,0.534833 -0.25178,0.134128 -0.52574,0.242686 -0.82356,0.327948 -0.29782,0.08468 -0.57121,0.181308 -0.823,0.289296 -0.25235,0.107418 -0.46265,0.244967 -0.63259,0.411499 -0.16994,0.166532 -0.25463,0.399557 -0.25463,0.701365 0,0.183011 0.0358,0.350683 0.10799,0.504141 0.0716,0.153457 0.17108,0.287593 0.29896,0.401837 0.12732,0.114807 0.27566,0.204605 0.4456,0.269975 0.17051,0.06481 0.3558,0.09776 0.55871,0.09776 0.20291,0 0.39842,-0.02787 0.58826,-0.08355 0.18926,-0.05517 0.424,-0.158003 0.70591,-0.308626 l 0.20518,0.450721 c -0.51551,0.281908 -1.03272,0.422292 -1.54824,0.422292 -0.26769,0 -0.51777,-0.04602 -0.75024,-0.137541 -0.23189,-0.09151 -0.4348,-0.217117 -0.60702,-0.377401 -0.17335,-0.159706 -0.31089,-0.34784 -0.41206,-0.563246 -0.10174,-0.216555 -0.15232,-0.447878 -0.15232,-0.69625 0,-0.274528 0.0495,-0.506421 0.14721,-0.69625 0.0983,-0.189266 0.22734,-0.347847 0.38762,-0.475157 0.15971,-0.127318 0.34045,-0.234166 0.54393,-0.318857 0.20233,-0.08525 0.41093,-0.164822 0.62634,-0.239852 0.21654,-0.07501 0.42514,-0.148912 0.62804,-0.220522 0.20234,-0.07163 0.38479,-0.160283 0.5445,-0.264858 0.15971,-0.105145 0.28873,-0.231893 0.38706,-0.382516 0.0972,-0.150045 0.14664,-0.339311 0.14664,-0.568362 0,-0.273957 -0.0471,-0.503008 -0.1421,-0.686018 -0.0949,-0.182449 -0.21996,-0.330221 -0.37682,-0.441052 -0.15744,-0.110839 -0.33363,-0.190977 -0.52972,-0.239852 -0.19609,-0.04947 -0.39217,-0.07388 -0.58826,-0.07388 -0.2353,0 -0.46378,0.04208 -0.68602,0.12731 -0.22223,0.08469 -0.4905,0.235307 -0.80367,0.451283 l -0.19666,-0.471175 c 0.58883,-0.391598 1.16061,-0.587691 1.7159,-0.587691 0.30124,0 0.58145,0.03919 0.84346,0.117087 0.26145,0.07902 0.48993,0.198357 0.68602,0.358071 0.19495,0.159714 0.35069,0.363186 0.46549,0.608153 0.11425,0.244967 0.17108,0.534264 0.17108,0.867327 m -11.47079,4.391766 v 0 c 0.45072,0 0.86449,-0.0722 1.24018,-0.215977 0.37626,-0.143797 0.69966,-0.342724 0.97077,-0.598492 0.27055,-0.254058 0.47971,-0.559841 0.62692,-0.91564 0.1472,-0.355798 0.21995,-0.75081 0.21995,-1.181638 0,-0.470604 -0.0813,-0.887218 -0.2444,-1.249834 -0.16312,-0.362054 -0.38535,-0.666697 -0.66726,-0.911094 -0.28077,-0.245537 -0.60418,-0.431391 -0.97021,-0.559271 -0.36545,-0.126748 -0.74796,-0.191539 -1.14639,-0.191539 h -1.88243 v 5.823485 z m -0.0295,0.43082 h -2.34281 v -6.685134 h 2.43148 c 0.65987,0 1.21687,0.101171 1.671,0.304081 0.45413,0.202341 0.82016,0.463787 1.09865,0.784346 0.27679,0.31999 0.478,0.679201 0.6019,1.077626 0.12391,0.398425 0.18643,0.791164 0.18643,1.176514 0,0.366029 -0.0574,0.746835 -0.17165,1.141855 -0.11424,0.395582 -0.30976,0.756495 -0.58826,1.083303 -0.27736,0.326815 -0.64964,0.595079 -1.11683,0.804246 -0.46835,0.209158 -1.05774,0.313163 -1.76991,0.313163 m -7.5303,-1.734653 v 0 c 0,-0.405243 -0.14209,-0.725241 -0.42627,-0.961109 -0.28475,-0.235306 -0.72353,-0.352955 -1.31861,-0.352955 h -1.10775 v 2.617897 h 1.08842 c 0.61441,0 1.06172,-0.122195 1.34305,-0.367732 0.28021,-0.245537 0.42116,-0.556998 0.42116,-0.936101 m 1.49936,-4.842484 v 0 l -2.21436,3.224909 c 0.84914,0.313742 1.27371,0.856534 1.27371,1.627235 0,0.222233 -0.0392,0.437646 -0.11766,0.646805 -0.0785,0.209159 -0.20404,0.39388 -0.37739,0.553586 -0.17279,0.160854 -0.39956,0.287593 -0.68147,0.382516 -0.28078,0.09491 -0.62691,0.142086 -1.03898,0.142086 h -1.71476 v -6.685134 h 0.51892 v 3.205596 h 1.64713 l 2.28427,-3.362458 z m -10.42213,2.637218 h -2.87195 l 1.43171,3.165804 z m 1.81423,-2.745215 v 0 l -3.15671,6.782899 -0.25406,-0.126748 -3.08851,-6.656151 0.45128,-0.205745 1.16629,2.518999 h 3.26414 l 1.15663,-2.509338 z m -9.45194,6.626599 v 0 l -0.4996,0.185853 -2.24505,-5.812691 -2.25415,5.812691 -0.19665,-0.136409 -2.18538,-5.676282 -2.26437,5.822921 -0.48027,-0.196083 2.6071,-6.626599 0.19609,-0.156862 2.25471,5.802452 2.17628,-5.625127 0.20575,-0.196655 z m -14.89236,-3.881384 h -2.87197 l 1.43115,3.165804 z m 1.81423,-2.745215 v 0 l -3.15615,6.782899 -0.2552,-0.126748 -3.08794,-6.656151 0.45129,-0.205745 1.16629,2.518999 h 3.26413 l 1.15663,-2.509338 z m -16.0757,6.254314 v 0 c 0.45072,0 0.86449,-0.0722 1.23961,-0.215977 0.37626,-0.143797 0.69966,-0.342724 0.97077,-0.598493 0.27111,-0.254058 0.48027,-0.55984 0.62747,-0.91564 0.14664,-0.355798 0.22053,-0.75081 0.22053,-1.181638 0,-0.470604 -0.0818,-0.887218 -0.24554,-1.249834 -0.16311,-0.362054 -0.38535,-0.666697 -0.66612,-0.911094 -0.28134,-0.245537 -0.60417,-0.43139 -0.9702,-0.559271 -0.3666,-0.126748 -0.74854,-0.191539 -1.14696,-0.191539 h -1.88245 v 5.823485 z m -0.0296,0.430819 h -2.3428 v -6.685133 h 2.4309 c 0.65987,0 1.21744,0.101171 1.67156,0.30408 0.45357,0.202341 0.82016,0.463788 1.09809,0.784346 0.27736,0.31999 0.47856,0.679201 0.60247,1.077626 0.12447,0.398426 0.18586,0.791165 0.18586,1.176514 0,0.366029 -0.0569,0.746835 -0.17108,1.141855 -0.11424,0.395582 -0.31033,0.756495 -0.58826,1.083303 -0.27736,0.326816 -0.65022,0.595079 -1.11741,0.804246 -0.4672,0.209158 -1.05716,0.313163 -1.76933,0.313163 m -7.89291,-3.939919 h -2.87254 l 1.43172,3.165804 z m 1.81366,-2.745215 v 0 l -3.15672,6.782891 -0.2552,-0.126748 -3.08737,-6.656151 0.45071,-0.205745 1.16686,2.519 h 3.26414 l 1.15662,-2.509339 z" /></g></g></g></g></svg>