<svg id="Layer_1" enable-background="new 0 0 91 91" height="512" viewBox="0 0 91 91" width="512" xmlns="http://www.w3.org/2000/svg"><g><path d="m82.332 35.135c.015-.377.008-2.332-1.438-3.83-.661-.684-1.85-1.499-3.78-1.499h-9.221c.486-1.877.754-3.826.754-5.82 0-12.837-10.441-23.281-23.279-23.281-12.836 0-23.281 10.444-23.281 23.281 0 2 .255 3.951.737 5.82h-8.767c-1.97 0-3.18.843-3.846 1.55-1.5 1.59-1.46 3.684-1.44 3.94v40.702h-6.033c-1.389 0-2.515 1.125-2.515 2.516v6.969c0 .793.375 1.541 1.01 2.016.626.467 3.895 2.797 6.837 2.797h74.964c2.948 0 6.215-2.33 6.842-2.797.634-.475 1.011-1.223 1.011-2.016v-6.969c0-1.391-1.129-2.516-2.516-2.516h-6.037zm-68.275-.297h9.867c.275 0 .538-.055.785-.139 1.307 2.52 3.063 4.777 5.18 6.667-3.593 2.553-6.561 5.974-8.531 9.921l-.147.295-.067.324c-.069.336-1.696 8.336-1.696 13.658 0 1.391 1.126 2.516 2.515 2.516s2.515-1.125 2.515-2.516c0-4.248 1.231-10.797 1.53-12.324 1.878-3.623 4.796-6.684 8.311-8.761 1.616.871 3.348 1.565 5.185 2.044.213.055.424.08.634.08 1.119 0 2.139-.75 2.434-1.883.35-1.345-.458-2.718-1.803-3.066-8.037-2.088-13.649-9.351-13.649-17.668 0-10.063 8.188-18.25 18.25-18.25 10.063 0 18.25 8.187 18.25 18.25 0 6.289-3.241 12.074-8.437 15.392-.021.012-.041.028-.062.041-.743.469-1.523.889-2.339 1.253-1.27.565-1.841 2.051-1.276 3.32.563 1.269 2.048 1.842 3.32 1.275.543-.242 1.073-.506 1.594-.784 3.84 2.266 6.933 5.67 8.789 9.731.731 2.232 2.418 8.25 2.056 11.244-.166 1.379.819 2.633 2.196 2.799.104.012.204.02.306.02 1.254 0 2.339-.939 2.493-2.217.568-4.713-2.021-12.666-2.318-13.559l-.092-.236c-1.969-4.375-5.107-8.136-9.005-10.898 2.099-1.873 3.832-4.104 5.13-6.577.152.026.308.047.465.047h10.676c.073 0 .133.008.16.002.016.059.027.137.027.203v40.956h-22.256c-1.037 0-1.967.637-2.345 1.604l-.212.543h-14.405l-.153-.445c-.348-1.018-1.305-1.701-2.381-1.701h-21.75l-.004-40.847c0-.002.031-.272-.005-.284 0-.001.075-.03.265-.03zm71.797 49.295c-.984.586-2.157 1.131-2.82 1.131h-74.964c-.662 0-1.834-.545-2.816-1.131v-3.105h28.499l.152.447c.349 1.018 1.306 1.701 2.381 1.701h17.924c1.036 0 1.968-.635 2.345-1.602l.212-.547h29.089v3.106z"/><path d="m52.181 30.535c1.13-.811 1.39-2.383.58-3.511-.812-1.13-2.381-1.385-3.512-.579-3.864 2.774-7.293.35-7.686.055-1.092-.843-2.663-.653-3.518.434-.858 1.093-.668 2.676.424 3.533 1.347 1.06 3.931 2.305 6.984 2.305 2.104 0 4.429-.591 6.728-2.237z"/><path d="m39.658 22.375c1.589 0 2.881-1.292 2.881-2.88s-1.292-2.882-2.881-2.882c-1.588 0-2.882 1.294-2.882 2.882s1.294 2.88 2.882 2.88z"/><path d="m51.084 22.375c1.586 0 2.874-1.292 2.874-2.88s-1.288-2.882-2.874-2.882c-1.589 0-2.883 1.294-2.883 2.882s1.294 2.88 2.883 2.88z"/><path d="m43.819 72.367c.489.48 1.124.721 1.761.721.634 0 1.268-.24 1.758-.719l6.08-5.945c.688-.674.933-1.682.628-2.594l-5.874-17.625c-.339-1.02-1.287-1.709-2.359-1.721-1.017-.006-2.037.661-2.395 1.672l-6.281 17.625c-.33.924-.092 1.955.609 2.643zm1.887-17.648 3.068 9.211-3.193 3.123-3.165-3.098z"/><path d="m29.789 63.115c-.112.711-.207 2.424.021 7.297.062 1.35 1.174 2.4 2.51 2.4.04 0 .078-.002.12-.002 1.387-.066 2.46-1.244 2.395-2.631-.113-2.422-.176-5.408-.095-6.164.188-.658.333-1.918-1.657-6.898-.513-1.291-1.98-1.916-3.269-1.404-1.289.516-1.918 1.98-1.402 3.27.645 1.619 1.254 3.456 1.377 4.132z"/><path d="m56.741 70.18c-.064 1.387 1.008 2.564 2.396 2.631.041 0 .08.002.119.002 1.337 0 2.447-1.051 2.512-2.4.227-4.865.133-6.58.021-7.295.12-.674.73-2.512 1.38-4.135.513-1.289-.115-2.754-1.407-3.27-1.281-.512-2.751.113-3.267 1.404-1.994 4.994-1.843 6.248-1.656 6.898.079.758.017 3.743-.098 6.165z"/></g></svg>